<svg width="31" height="28" viewBox="0 0 31 28" fill="none" xmlns="http://www.w3.org/2000/svg">
<path d="M7.29838 8.7566C7.29838 7.39799 8.02309 6.14355 9.19919 5.46424L13.8938 2.75326L10.2444 0.645902C9.56065 0.251496 8.71931 0.251496 8.03556 0.645902L3.26084 3.40318C2.57709 3.79759 2.15686 4.52675 2.15686 5.31645V10.8301C2.15686 11.6189 2.57798 12.3481 3.26084 12.7434L7.29838 15.0742V8.7566Z" fill="#1D1D1D"/>
<path d="M7.29857 18.247V16.0444L2.92984 13.5212L1.37803 14.4178C0.630175 14.8487 0.170776 15.6455 0.170776 16.5073V22.5303C0.170776 23.3921 0.630175 24.1889 1.37714 24.6198L6.59256 27.6317C7.33864 28.0626 8.25832 28.0626 9.00529 27.6317L14.2207 24.6198C14.2723 24.5904 14.3222 24.5584 14.3703 24.5254L9.19849 21.5393C8.02239 20.86 7.29857 19.6047 7.29857 18.247Z" fill="#1D1D1D"/>
<path d="M28.5892 6.13629L21.059 1.78803C19.9817 1.16571 18.6534 1.16571 17.5761 1.78803L10.0459 6.13629C8.96861 6.75862 8.30444 7.90889 8.30444 9.15354V17.8501C8.30444 19.0947 8.96861 20.245 10.0459 20.8673L17.5761 25.2156C18.6534 25.8379 19.9817 25.8379 21.059 25.2156L28.5892 20.8673C29.6665 20.245 30.3306 19.0947 30.3306 17.8501V9.15354C30.3306 7.90889 29.6665 6.75862 28.5892 6.13629ZM25.985 16.7728C25.5123 17.4548 24.8677 17.8812 24.0451 18.0068C23.4762 18.0931 22.9251 18.0148 22.3953 17.7717C21.8994 17.5438 21.3759 17.4085 20.8346 17.3346C20.5248 17.2927 20.2141 17.2918 19.9043 17.307C19.5223 17.3257 19.1519 17.4218 18.7914 17.5474C18.3667 17.6943 17.9812 17.9106 17.634 18.1973C17.374 18.4118 17.1594 18.6683 16.9431 18.9238C16.8692 19.011 16.7998 19.1018 16.7312 19.1926C16.3003 19.9084 15.515 20.3874 14.6185 20.3874C13.2572 20.3874 12.1541 19.2843 12.1541 17.9231C12.1541 16.5618 13.2572 15.4587 14.6185 15.4587C15.1856 15.4587 15.7091 15.651 16.1249 15.9733C16.5469 16.2502 16.9992 16.4594 17.4995 16.5458C18.3409 16.69 19.1039 16.4915 19.768 15.9528C20.3494 15.4818 20.6779 14.8631 20.7705 14.1241C20.8471 13.5071 20.7055 12.932 20.385 12.4014C20.0921 11.9162 19.6852 11.552 19.1769 11.3054C18.8679 11.155 18.5385 11.0748 18.1966 11.0285C17.7827 10.9715 17.4221 10.7881 17.106 10.5121C16.7615 10.2112 16.5282 9.84531 16.4178 9.41618C16.3662 9.22833 16.3386 9.02979 16.3386 8.82502C16.3386 7.59461 17.3357 6.59747 18.5661 6.59747C19.4039 6.59747 20.1331 7.05954 20.5132 7.7433V7.74419C20.6619 8.01128 20.7572 8.31131 20.7848 8.63182C20.8133 8.90693 20.791 9.18648 20.7082 9.45803C20.6299 9.71176 20.5684 9.97262 20.572 10.2388C20.5764 10.5255 20.6281 10.8077 20.7447 11.0748C20.8578 11.3312 21.0065 11.5654 21.205 11.7613C21.4801 12.0328 21.8033 12.218 22.1915 12.2794C22.585 12.3417 22.9785 12.348 23.3747 12.323C23.8661 12.2919 24.3407 12.3622 24.7911 12.5705C25.1099 12.7183 25.3948 12.9124 25.6396 13.1644C26.0821 13.6193 26.3688 14.1553 26.4409 14.7901C26.5228 15.5005 26.4008 16.1736 25.985 16.7728Z" fill="#1D1D1D"/>
</svg>
