<svg width="57" height="50" viewBox="0 0 57 50" fill="none" xmlns="http://www.w3.org/2000/svg">
<circle cx="35.8474" cy="29.5583" r="20.2616" fill="#1958DD" fill-opacity="0.1"/>
<g clip-path="url(#clip0)">
<path d="M36.5193 39.1935L34.8391 34.1521C34.2519 32.392 32.7538 31.0928 30.9277 30.7604L26.0771 29.8778V29.5018C26.9212 29.0119 27.6558 28.3565 28.2408 27.5806H29.7062C30.9067 27.5806 31.8836 26.6037 31.8836 25.4032V16.6935C31.8836 11.491 27.6507 7.25806 22.4481 7.25806C17.2455 7.25806 13.0126 11.491 13.0126 16.6935V21.7742C13.0126 23.1735 14.0077 24.3443 15.3272 24.6172C15.7344 26.7031 17.0379 28.4683 18.8191 29.5018V29.8778L13.9678 30.7604C12.1424 31.0928 10.6436 32.392 10.0571 34.1521L9.76681 35.0238L7.29471 32.5517C7.01165 32.2686 7.01165 31.8077 7.29471 31.5247L10.1616 28.6585L4.78052 23.2773L1.54052 26.5173C0.580999 27.4768 0.0526123 28.7528 0.0526123 30.1101C0.0526123 31.4673 0.580999 32.7426 1.54052 33.7021L11.3498 43.5114C12.3093 44.4709 13.5853 45 14.9425 45C16.2998 45 17.575 44.4709 18.5121 43.5331L22.0475 40.2939L20.945 39.1935H36.5193ZM30.432 25.4032C30.432 25.8039 30.1061 26.129 29.7062 26.129H29.0958C29.3062 25.6493 29.4659 25.1434 29.569 24.6172C29.8796 24.5526 30.1656 24.4292 30.432 24.2739V25.4032ZM29.7062 23.024V20.5243C30.138 20.7762 30.432 21.2393 30.432 21.7742C30.432 22.3091 30.138 22.7722 29.7062 23.024ZM15.19 23.024C14.7582 22.7722 14.4642 22.3091 14.4642 21.7742C14.4642 21.2393 14.7582 20.7762 15.19 20.5243V23.024ZM15.19 18.1452V18.974C14.9316 19.0415 14.6892 19.1431 14.4642 19.2745V16.6935C14.4642 12.2915 18.0461 8.70967 22.4481 8.70967C26.8501 8.70967 30.432 12.2915 30.432 16.6935V19.2745C30.207 19.1431 29.9646 19.0408 29.7062 18.974V18.1452H28.9804C26.8342 18.1452 24.8164 17.309 23.298 15.7914L22.4481 14.9414L21.5982 15.7914C20.0798 17.309 18.0621 18.1452 15.9158 18.1452H15.19ZM16.6416 23.2258V19.5692C18.8212 19.4052 20.8535 18.5059 22.4481 16.9897C24.0427 18.5059 26.075 19.4059 28.2546 19.5692V23.2258C28.2546 24.284 27.9657 25.274 27.4692 26.129H22.4481V27.5806H26.276C25.2526 28.4814 23.915 29.0323 22.4481 29.0323C19.2466 29.0323 16.6416 26.4273 16.6416 23.2258ZM24.6255 30.1493V30.1834L22.4481 32.3608L20.2707 30.1834V30.1493C20.9587 30.3656 21.6896 30.4839 22.4481 30.4839C23.2066 30.4839 23.9375 30.3656 24.6255 30.1493ZM11.4333 34.6108C11.852 33.3537 12.9226 32.4254 14.2269 32.1873L19.3003 31.2656L22.4481 34.4134L25.5952 31.2663L30.6679 32.1881C31.9721 32.4261 33.0427 33.3537 33.4615 34.6115L34.5059 37.7419H19.4933L16.6663 34.9149L13.525 37.7564C13.2514 38.0315 12.7731 38.0315 12.4987 37.7564L10.9136 36.1713L11.4333 34.6108ZM4.77979 25.3299L8.10834 28.6585L7.32011 29.4467L3.99156 26.1181L4.77979 25.3299ZM17.5068 42.4865C16.8216 43.1702 15.91 43.5484 14.9411 43.5484C13.9721 43.5484 13.0605 43.1702 12.3746 42.4851L2.56535 32.6765C1.88019 31.9914 1.50277 31.0798 1.50277 30.1108C1.50277 29.1411 1.88019 28.2295 2.56535 27.5443L2.96455 27.1452L6.2931 30.4737L6.26697 30.4998C5.4185 31.349 5.4185 32.7302 6.26697 33.5794L11.4717 38.7842C11.8833 39.195 12.4298 39.4222 13.0119 39.4222C13.594 39.4222 14.1405 39.1957 14.5252 38.8096L14.5796 38.761L17.9234 42.1048L17.5068 42.4865ZM18.9947 41.122L15.6582 37.7855L16.617 36.9189L19.9477 40.2496L18.9947 41.122Z" fill="#FF8C00"/>
<path d="M42.7707 0H32.6094C31.4089 0 30.432 0.976935 30.432 2.17742V7.98387C30.432 9.18436 31.4089 10.1613 32.6094 10.1613H34.5481L33.7976 14.5386L40.8016 10.1613H42.7707C43.9712 10.1613 44.9481 9.18436 44.9481 7.98387V2.17742C44.9481 0.976935 43.9712 0 42.7707 0ZM43.4965 7.98387C43.4965 8.38379 43.1706 8.70968 42.7707 8.70968H40.385L35.7754 11.5904L36.2697 8.70968H32.6094C32.2095 8.70968 31.8836 8.38379 31.8836 7.98387V2.17742C31.8836 1.7775 32.2095 1.45161 32.6094 1.45161H42.7707C43.1706 1.45161 43.4965 1.7775 43.4965 2.17742V7.98387Z" fill="#FF8C00"/>
<path d="M42.0449 2.90323H33.3352V4.35484H42.0449V2.90323Z" fill="#FF8C00"/>
<path d="M39.1417 5.80646H33.3352V7.25807H39.1417V5.80646Z" fill="#FF8C00"/>
<path d="M42.0449 5.80646H40.5933V7.25807H42.0449V5.80646Z" fill="#FF8C00"/>
<path d="M22.4481 2.17743C12.9647 2.17743 4.79575 8.73727 2.67204 17.8875L1.29664 15.5947L0.0518799 16.3415L2.60309 20.5926L6.85414 18.0414L6.10728 16.7966L4.14035 17.9768C6.19728 9.60606 13.7246 3.62904 22.4481 3.62904C24.3548 3.62904 26.2361 3.91211 28.0397 4.47098L28.4694 3.08469C26.5264 2.48227 24.5007 2.17743 22.4481 2.17743Z" fill="#FF8C00"/>
<path d="M44.5953 16.0708L40.3443 13.5196L37.7938 17.7714L39.0386 18.5182L40.3087 16.401C40.9772 18.3571 41.3191 20.4031 41.3191 22.5C41.3191 26.8164 39.8239 31.0362 37.1101 34.3814L38.2373 35.296C41.1608 31.6931 42.7707 27.1481 42.7707 22.5C42.7707 20.2798 42.4128 18.1118 41.7153 16.036L43.8485 17.3156L44.5953 16.0708Z" fill="#FF8C00"/>
</g>
<defs>
<clipPath id="clip0">
<rect width="45" height="45" fill="white"/>
</clipPath>
</defs>
</svg>
