<svg xmlns="http://www.w3.org/2000/svg" viewBox="0 0 738.91 166.33"><defs><style>.cls-1{fill:none;stroke:#d0cecf;stroke-miterlimit:10;}.cls-2{fill:#d0cecf;}</style></defs><title>Ativo 3</title><g id="Camada_2" data-name="Camada 2"><g id="BACKGROUND_2" data-name="BACKGROUND 2"><polyline class="cls-1" points="0.99 165.83 285.71 162.25 343.34 92.87 731.87 92.87"/><circle class="cls-1" cx="734.6" cy="92.87" r="3.81"/><polyline class="cls-1" points="484.82 66.26 386.42 66.26 375.31 81.53 250.86 81.53 227.9 111.11 0.99 111.11"/><path class="cls-1" d="M490.1,65.92a2.64,2.64,0,1,0-2.64,2.64A2.64,2.64,0,0,0,490.1,65.92Z"/><path class="cls-2" d="M389.06,66.26a2.64,2.64,0,1,0-2.64,2.64A2.64,2.64,0,0,0,389.06,66.26Z"/><path class="cls-2" d="M253,81.54a2.64,2.64,0,1,0-2.64,2.64A2.65,2.65,0,0,0,253,81.54Z"/><polyline class="cls-1" points="0 50.67 215.38 50.67 232.65 27.06 408.45 27.06 445.2 27.06"/><path class="cls-2" d="M448.83,27.06a2.64,2.64,0,1,0-2.64,2.64A2.64,2.64,0,0,0,448.83,27.06Z"/><path class="cls-2" d="M234.44,27.06a2.64,2.64,0,1,0-2.64,2.64A2.64,2.64,0,0,0,234.44,27.06Z"/><polyline class="cls-1" points="0.99 126.27 482.01 126.27 517.04 78.86 592.6 78.86 622.23 37.38 685.94 37.38"/><path class="cls-2" d="M690.06,37.38A2.64,2.64,0,1,0,687.42,40,2.64,2.64,0,0,0,690.06,37.38Z"/><circle class="cls-2" cx="592.96" cy="78.44" r="2.64"/><path class="cls-2" d="M519.68,78.44A2.64,2.64,0,1,0,517,81.08,2.64,2.64,0,0,0,519.68,78.44Z"/><polyline class="cls-1" points="0.99 60.08 227.9 60.08 269.63 3.14 509.64 3.14"/><path class="cls-1" d="M514.4,3.14a2.64,2.64,0,1,0-2.64,2.64A2.64,2.64,0,0,0,514.4,3.14Z"/><polyline class="cls-1" points="293.33 15.95 199.24 15.95 138.26 80.81 0.99 80.81"/><circle class="cls-2" cx="295.92" cy="15.95" r="3.81"/></g></g></svg>