<svg xmlns="http://www.w3.org/2000/svg" viewBox="0 0 348.47 106.51"><defs><style>.cls-1,.cls-3{fill:#343a40;}.cls-2,.cls-5{fill:#afafaf;}.cls-3{font-size:32.05px;font-family:Multicolore-Regular, Multicolore;}.cls-4{letter-spacing:-0.05em;}.cls-5{font-size:12.47px;letter-spacing:0em;}</style></defs><title>Ativo 2</title><g id="Camada_2" data-name="Camada 2"><g id="OBJECTS"><path class="cls-1" d="M91.54,70.68a23.69,23.69,0,0,0-14.82,5.26S57.82,89,46.49,88.08C38.49,87.42,33.93,79,37,67c1.75-6.87,8.63-27,8.63-27a20,20,0,0,1,19-13.89H99.05a53.25,53.25,0,1,0,3.49,47.37A23.66,23.66,0,0,0,91.54,70.68Z"/><polygon class="cls-2" points="71.24 51.33 64.48 51.33 64.48 44.58 58.25 44.58 58.25 51.33 51.49 51.33 51.49 57.57 58.25 57.57 58.25 64.33 64.48 64.33 64.48 57.57 71.24 57.57 71.24 51.33"/><path class="cls-1" d="M124.73,47.6a3,3,0,1,1-3-3A3,3,0,0,1,124.73,47.6Z"/><path class="cls-1" d="M124.73,61.3a3,3,0,1,1-3-3A3,3,0,0,1,124.73,61.3Z"/><path class="cls-1" d="M114.86,51.43a3,3,0,1,1-3,3A3,3,0,0,1,114.86,51.43Z"/><path class="cls-1" d="M128.56,51.43a3,3,0,1,1-3,3A3,3,0,0,1,128.56,51.43Z"/><text class="cls-3" transform="translate(141.88 63.16)">HARD<tspan class="cls-4" x="92.86" y="0">W</tspan><tspan x="125.46" y="0">ARE</tspan><tspan class="cls-5" x="190.5" y="0">171</tspan></text></g></g></svg>